<?xml version="1.0" encoding="UTF-8"?>
<svg width="550px" height="114px" viewBox="0 0 550 114" version="1.1" xmlns="http://www.w3.org/2000/svg" xmlns:xlink="http://www.w3.org/1999/xlink">
    <!-- Generator: Sketch 42 (36781) - http://www.bohemiancoding.com/sketch -->
    <title>Artboard</title>
    <desc>Created with Sketch.</desc>
    <defs></defs>
    <g id="Page-1" stroke="none" stroke-width="1" fill="none" fill-rule="evenodd">
        <g id="Artboard">
            <text id="StageCast" font-family="CreamCake, Cream Cake" font-size="144" font-weight="normal" fill="#434D70">
                <tspan x="142" y="85">StageCast</tspan>
            </text>
            <g id="theater" transform="translate(0.000000, 2.000000)" fill-rule="nonzero">
                <g id="Capa_1">
                    <circle id="Oval" fill="#434D70" cx="56" cy="56" r="56"></circle>
                    <path d="M43.5170312,14.7422187 C36.197,44.811375 45.2473437,72.835 63.7315,77.3349062 C82.2156562,81.8348125 103.134062,61.1065 110.454094,31.0375625 C117.774125,0.968625 97.713,18.1748437 79.2290625,13.6751562 C60.745125,9.17546875 50.8370625,-15.3269375 43.5170312,14.7422187 Z" id="Shape" fill="#F9CB3F"></path>
                    <path d="M63.7301875,77.33425 C45.2455938,72.835 36.1963438,44.811375 43.5168125,14.7424375 C47.8716875,-3.14825 53.143125,-1.7206875 60.5909063,3.32171875 C58.76675,5.07609375 56.9550625,9.31 54.9548125,17.5275625 C47.6343438,47.5960625 51.562875,74.3728125 63.7301875,77.33425 Z" id="Shape" fill="#E5B832"></path>
                    <g id="Group" transform="translate(50.531250, 23.625000)" fill="#434D70">
                        <path d="M8.8795,6.8586875 C12.7369375,7.7975625 16.6088125,6.99978125 19.6774375,4.96890625 C17.7434687,9.445625 12.8130625,12.0126563 7.91503125,10.82025 C3.017,9.62784375 -0.18178125,5.082 0.15815625,0.217 C1.95015625,3.4313125 5.0220625,5.91959375 8.8795,6.8586875 Z" id="Shape"></path>
                        <path d="M38.57175,14.0870625 C42.4291875,15.0259375 46.3010625,14.2281562 49.3696875,12.1972812 C47.4357187,16.674 42.5053125,19.2410312 37.6072812,18.048625 C32.70925,16.8562187 29.5104687,12.310375 29.8504062,7.445375 C31.6424062,10.6594687 34.7145312,13.1479687 38.57175,14.0870625 Z" id="Shape"></path>
                        <path d="M18.7103438,33.22725 C12.2139063,31.6456875 5.6923125,32.9894687 0.52434375,36.4102812 C3.78153125,28.8704062 12.0857188,24.54725 20.3345625,26.555375 C28.583625,28.5635 33.9716563,36.2199687 33.3985313,44.41325 C30.3810938,39.0000625 25.207,34.8090312 18.7103438,33.22725 Z" id="Shape"></path>
                    </g>
                    <path d="M53.2846563,111.933719 C46.5486875,111.613688 40.1235625,110.102781 34.2173125,107.604656 C22.224125,102.537313 12.3659375,93.4104063 6.36125,81.9452813 C6.36125,81.9452813 6.3590625,81.9452813 6.3590625,81.9430938 C4.416125,77.4630938 2.78425,72.6379063 1.54525,67.543 C0.784,64.4137813 0.32003125,61.7990625 0.11659375,59.6161563 C0.11440625,59.591 0.112,59.5636563 0.1098125,59.5385 C0.0205625,58.5350938 -0.0135625,57.623125 0.007,56.798 C0.0048125,56.7888125 0.0048125,56.779625 0.007,56.7706563 C0.361375,42.256375 17.1292188,53.9890313 32.7705,50.1810313 C51.2550938,45.6804688 61.1635938,21.1798125 68.4825313,51.2485313 C75.1062813,78.4525 68.3267813,103.986313 53.2846563,111.933719 Z" id="Shape" fill="#F43380"></path>
                    <path d="M34.2170938,107.604656 C22.2239063,102.537313 12.3633125,93.408 6.35884375,81.942875 C4.41590625,77.462875 2.78403125,72.6376875 1.54503125,67.5427813 C0.78378125,64.4135625 0.3198125,61.7988438 0.116375,59.6159375 C0.116375,59.5999688 0.1141875,59.584 0.11178125,59.5680313 C0.02034375,58.55325 -0.014,57.6320938 0.0065625,56.7977813 C0.18484375,48.9967188 5.0876875,48.74975 12.0065313,49.616 C11.32075,52.0594375 11.71625,56.6149063 13.6567813,64.59425 C18.2605938,83.5040938 26.1005938,99.243375 34.2170938,107.604656 Z" id="Shape" fill="#E02D77"></path>
                    <g id="Group" transform="translate(14.000000, 62.343750)" fill="#434D70">
                        <path d="M8.8221875,11.5696875 C12.679625,10.6308125 16.5515,11.4285937 19.620125,13.4594687 C17.6861563,8.98275 12.75575,6.41571875 7.85771875,7.608125 C2.9596875,8.80053125 -0.23909375,13.346375 0.10084375,18.211375 C1.89284375,14.9970625 4.96475,12.5085625 8.8221875,11.5696875 Z" id="Shape"></path>
                        <path d="M38.5144375,4.3413125 C42.371875,3.4024375 46.24375,4.20021875 49.312375,6.23109375 C47.3784063,1.754375 42.448,-0.81265625 37.5499688,0.37975 C32.6519375,1.57215625 29.4531563,6.118 29.7930938,10.983 C31.5850938,7.7686875 34.6572188,5.2801875 38.5144375,4.3413125 Z" id="Shape"></path>
                        <path d="M28.8822188,31.5266875 C22.3857813,33.10825 15.8641875,31.7644687 10.6962188,28.3436562 C13.9534063,35.8835312 22.2575938,40.2066875 30.5064375,38.1985625 C38.7555,36.1904375 44.1435313,28.5339687 43.5704063,20.3406875 C40.5531875,25.7540937 35.378875,29.945125 28.8822188,31.5266875 Z" id="Shape"></path>
                    </g>
                </g>
            </g>
        </g>
    </g>
</svg>