<?xml version="1.0" encoding="UTF-8"?>
<svg width="550px" height="114px" viewBox="0 0 550 114" version="1.1" xmlns="http://www.w3.org/2000/svg" xmlns:xlink="http://www.w3.org/1999/xlink">
    <!-- Generator: Sketch 42 (36781) - http://www.bohemiancoding.com/sketch -->
    <title>Artboard</title>
    <desc>Created with Sketch.</desc>
    <defs></defs>
    <g id="Page-1" stroke="none" stroke-width="1" fill="none" fill-rule="evenodd">
        <g id="Artboard">
            <path d="M479.411244,53.95786 C480.977454,50.3909885 487.99482,34.168 490.624,34.168 L501.28,34.168 C502.144,34.168 502.72,34.744 502.72,35.464 C502.72,35.752 502.72,36.184 502.432,36.472 C499.84,40.36 498.976,44.248 498.976,47.992 C498.976,54.04 500.992,60.088 500.992,66.28 C500.992,67.72 500.848,69.16 500.56,70.6 C499.84,73.912 498.976,76.504 497.68,78.52 C499.552,76.504 502.576,72.616 504.88,69.16 C507.199916,65.4754282 509.778482,61.0149038 512.493141,55.288191 C514.671001,47.0459078 517.631091,38.2820241 520.432,30.712 C517.552,30.568 514.816,30.568 512.512,30.568 C511.648,30.424 511.072,29.704 511.072,29.128 C511.072,28.408 511.648,27.688 512.512,27.688 L521.44,27.832 C523.312,22.936 525.04,18.76 526.48,15.592 C526.912,14.296 528.352,13.864 530.08,13.864 C533.824,13.864 539.008,16.168 539.008,18.328 L538.864,18.76 C537.568,21.64 536.272,24.808 534.976,28.264 L542.176,28.408 C543.04,28.408 543.616,29.128 543.616,29.848 C543.616,30.568 543.04,31.288 542.032,31.288 C539.584,31.144 536.848,31.144 533.824,31.144 C529.36,44.392 524.464,59.224 521.584,71.464 C521.296,72.328 520,78.232 520,80.824 C520,81.832 520.144,82.12 520.576,82.12 C522.16,82.12 524.896,78.664 525.904,77.368 C530.368,71.32 535.552,60.664 538.432,54.472 C538.72,53.752 539.152,53.608 539.728,53.608 C539.872,53.608 540.16,53.608 540.448,53.752 C540.88,54.04 541.168,54.472 541.168,55.048 C541.168,55.048 541.168,55.336 541.024,55.624 C538,62.536 532.672,73.192 527.776,79.672 C526.048,81.688 523.312,84.856 520.576,85 L518.416,85 C514.96,85 511.648,84.568 510.352,81.544 C509.632,79.96 509.2,77.656 509.2,75.064 C509.2,72.4256631 509.525756,69.374172 510.093285,66.0625636 C509.096312,67.7881809 508.076617,69.4523939 507.04,71.032 C504.88,74.344 502.72,77.224 500.272,79.96 C495.952,84.712 490.912,85 486.592,85 L485.296,85 C476.8,85 472.768,79.528 472.768,73.336 C472.768,73.2697681 472.768461,73.2034787 472.769381,73.1371363 C468.944381,79.5844101 464.798901,84.8488978 461.248,85 L459.52,85 C455.92,85 452.176,84.568 450.592,81.544 C449.728,80.104 449.44,77.944 449.44,75.496 C449.44,74.056 449.584,72.616 449.728,70.888 C446.416,76.648 441.808,82.264 436.192,82.264 L435.904,82.264 C428.992,82.12 426.112,76.36 426.112,68.872 C426.112,68.1143171 426.141287,67.3395501 426.198888,66.5516553 C417.656642,80.5079617 404.205343,92.056 387.088,92.056 L386.8,92.056 C373.552,92.056 361.744,83.416 361.744,64.984 C361.744,63.492401 361.81903,61.9516624 361.966083,60.3731464 C353.386217,76.8304616 346.289197,82.4315811 341.008,84.28 C339.136,84.856 337.408,85 335.968,85 L334.384,85 C322.144,84.568 317.68,77.368 317.68,68.296 C317.68,68.0265256 317.683673,67.7560018 317.690956,67.4845234 C315.662864,71.5532835 313.709078,75.0877757 311.632,78.088 C307.744,83.704 303.568,87.592 297.664,89.896 C293.776,99.832 287.728,111.928 275.632,111.928 L274.624,111.928 C268.288,111.496 265.12,107.464 265.12,102.136 C265.12,101.272 265.264,100.408 265.408,99.4 C267.136,90.76 274.336,87.592 287.44,86.872 C289.168,82.12 289.888,79.24 291.616,73.048 C288.304,77.8 284.272,82.264 279.376,82.264 L279.088,82.264 C272.176,82.12 269.296,76.36 269.296,68.872 C269.296,68.3765696 269.308522,67.8738349 269.333293,67.3649019 C264.742074,76.1270368 259.181798,84.8053703 254.608,85 L252.88,85 C249.28,85 245.536,84.568 243.952,81.544 C243.088,80.104 242.8,77.944 242.8,75.496 C242.8,74.056 242.944,72.616 243.088,70.888 C239.776,76.648 235.168,82.264 229.552,82.264 L229.264,82.264 C222.352,82.12 219.472,76.36 219.472,68.872 C219.472,68.4974955 219.479155,68.1188172 219.493348,67.7364429 C217.160895,72.0995423 214.589836,76.4136883 212.128,79.672 C210.4,81.688 207.664,84.856 204.928,85 L202.768,85 C199.312,85 196,84.568 194.704,81.544 C193.984,79.96 193.552,77.656 193.552,75.064 C193.552,63.832 199.456,45.112 204.784,30.712 C201.904,30.568 199.168,30.568 196.864,30.568 C196,30.424 195.424,29.704 195.424,29.128 C195.424,28.408 196,27.688 196.864,27.688 L205.792,27.832 C207.664,22.936 209.392,18.76 210.832,15.592 C211.264,14.296 212.704,13.864 214.432,13.864 C218.176,13.864 223.36,16.168 223.36,18.328 L223.216,18.76 C221.92,21.64 220.624,24.808 219.328,28.264 L226.528,28.408 C227.392,28.408 227.968,29.128 227.968,29.848 C227.968,30.568 227.392,31.288 226.384,31.288 C223.936,31.144 221.2,31.144 218.176,31.144 C213.712,44.392 208.816,59.224 205.936,71.464 C205.648,72.328 204.352,78.232 204.352,80.824 C204.352,81.832 204.496,82.12 204.928,82.12 C206.512,82.12 209.248,78.664 210.256,77.368 C213.994064,72.3035266 218.236995,64.0079004 221.209177,57.8079728 C224.72989,45.9615133 233.297566,34.312 244.096,34.312 L244.24,34.312 C247.984,34.312 251.008,35.608 252.736,38.344 L253.744,35.752 C254.464,34.6 255.76,34.168 257.488,34.168 C260.8,34.168 265.264,36.184 265.264,38.488 L265.12,39.064 C263.248,43.672 253.888,68.44 253.6,78.808 C253.6,80.824 253.744,82.12 254.464,82.12 C258.804002,81.9884848 266.747391,66.6026346 271.273423,57.0246779 C274.932839,45.4533942 283.35969,34.312 293.92,34.312 L294.064,34.312 C297.376,34.312 300.256,35.464 302.128,37.768 C302.272,36.904 302.56,35.896 303.136,35.464 C304.144,34.456 305.584,34.168 307.024,34.168 C310.48,34.168 314.512,36.472 314.512,38.488 L314.368,38.92 C312.784,43.528 310.768,49.72 308.752,56.632 C305.728,66.28 302.416,77.08 299.104,86.152 C303.136,83.992 306.304,80.824 309.328,76.504 C312.745681,71.5089284 315.803384,64.9539554 319.596451,56.8390813 C319.847758,56.0472961 320.121417,55.2575556 320.416,54.472 C323.872,45.256 331.504,34.168 342.016,34.168 L342.592,34.168 C348.064,34.312 352.528,37.048 352.528,42.52 L352.528,42.808 C352.24,53.032 341.728,65.56 333.952,65.56 C332.512,65.56 331.072,65.128 329.92,64.12 C329.632,65.848 329.344,67.72 329.344,69.592 C329.344,75.064 330.928,80.68 335.68,81.688 L337.264,81.832 C338.128,81.832 339.28,81.688 340.432,81.4 C345.472,79.528 352.672,73.336 361.744,54.472 C362.032,53.896 362.464,53.608 362.896,53.608 C362.926185,53.608 362.956371,53.6095819 362.986556,53.6125798 C367.804193,30.1514347 386.1496,2.30234105 409.552,2.056 C422.512,2.056 428.56,9.4 428.56,19.768 C428.56,32.152 419.488,49.864 411.568,55.192 C410.272,56.056 408.688,56.488 406.816,56.488 C402.064,56.488 396.016,53.608 395.584,50.44 C395.584,49.576 396.16,49 397.024,49 C404.944,48.28 420.64,25.096 420.64,14.584 C420.64,11.128 418.624,9.688 415.6,9.688 C414.448,9.688 413.44,9.976 412.432,10.12 C394,14.008 376.432,50.872 376.432,72.04 C376.432,80.536 379.6,85.144 387.808,85.288 C403.782259,85.288 420.604125,66.9231968 428.898885,54.6797791 C432.90161,43.9934942 440.891853,34.312 450.736,34.312 L450.88,34.312 C454.624,34.312 457.648,35.608 459.376,38.344 L460.384,35.752 C461.104,34.6 462.4,34.168 464.128,34.168 C467.44,34.168 471.904,36.184 471.904,38.488 L471.76,39.064 C469.888,43.672 460.528,68.44 460.24,78.808 C460.24,80.824 460.384,82.12 461.104,82.12 C465.856,81.976 474.928,63.544 479.104,54.472 C479.192742,54.2501438 479.295157,54.0829767 479.411244,53.95786 Z M481.443165,56.1675907 C480.607583,57.9625946 479.65359,59.9954098 478.612681,62.1307434 C478.77562,62.1127755 478.93981,62.104 479.104,62.104 C482.416,62.104 486.592,65.128 486.592,67.144 C486.592,67.432 486.448,67.864 486.016,68.152 C483.712,70.024 481.696,75.064 481.696,78.088 C481.696,79.24 481.984,79.96 482.56,80.392 C482.848,80.68 483.136,80.68 483.424,80.68 C484.288,80.68 485.296,79.96 486.016,79.096 C488.032,76.504 488.608,72.904 488.608,68.872 C488.608,61.96 486.88,53.896 486.88,47.56 C486.88,46.552 486.88,45.544 487.024,44.536 L481.84,55.768 C481.737638,55.921543 481.598894,56.0568951 481.443165,56.1675907 Z M233.152,74.2 C237.472,74.056 245.248,58.936 246.688,55.336 C247.408,53.464 248.704,49.576 248.704,46.408 C248.704,44.392 248.128,42.808 246.544,42.376 L245.68,42.232 C239.2,42.232 230.992,61.816 230.992,70.312 C230.992,72.76 231.712,74.2 233.152,74.2 Z M158.992,92.056 C151.792,92.056 143.584,86.44 142.144,79.096 L142,77.368 C142,72.184 145.744,63.976 150.352,61.384 C150.64,61.24 150.784,61.24 151.072,61.24 C151.792,61.24 152.512,61.816 152.512,62.536 C152.512,62.824 152.368,63.112 152.224,63.4 C149.488,67.432 147.616,72.04 147.616,75.928 L147.616,77.08 C147.904,81.112 151.072,84.856 154.96,84.856 C155.68,84.856 156.256,84.712 156.976,84.568 C162.448,83.128 167.488,77.8 171.088,71.896 C172.96,69.016 176.704,61.96 176.704,57.784 L176.56,56.488 C176.56,56.2 176.128,56.2 175.552,56.2 C172.384,56.2 162.304,59.08 159.136,59.224 L158.848,59.224 C152.656,59.224 146.176,54.328 146.176,46.984 C146.176,34.024 165.04,1.912 182.608,1.912 C195.712,1.912 200.032,10.84 200.032,20.776 C200.032,25.096 199.168,29.56 197.872,33.736 C194.992,42.52 190.096,44.824 185.344,44.824 C182.608,44.824 179.872,43.96 177.568,43.384 C176.848,43.24 176.416,42.664 176.416,41.944 C176.416,41.368 176.848,40.648 177.712,40.648 C181.888,40.36 184.912,33.304 186.064,29.848 C187.36,25.672 188.224,20.488 188.224,16.024 L188.08,12.856 C187.792,10.408 187.072,8.104 185.632,8.104 L185.2,8.104 C178.144,9.832 160,37.336 160,49.864 L160.288,52.024 C160.576,53.032 161.584,53.464 163.024,53.464 C167.056,53.464 174.544,50.296 177.28,50.296 L177.424,50.296 C186.208,50.296 187.936,59.512 187.936,59.512 C187.936,71.752 174.256,92.056 158.992,92.056 Z M282.832,74.056 C287.152,74.056 295.072,59.08 296.656,55.048 C297.088,53.608 298.528,49.576 298.528,46.264 C298.528,44.104 297.808,42.232 295.648,42.232 C288.88,42.376 280.672,61.816 280.672,70.312 C280.672,72.616 281.248,74.056 282.688,74.056 L282.832,74.056 Z M272.464,105.592 C277.936,105.592 282.976,97.96 286.288,89.896 C276.352,90.328 270.016,92.632 268.432,99.544 C268.288,100.12 268.288,100.696 268.288,101.272 C268.288,103.72 269.584,105.592 272.464,105.592 Z M333.232,60.52 C339.424,60.52 347.632,47.848 347.632,43.24 C347.632,42.376 347.344,41.944 346.912,41.656 C346.48,41.368 346.192,41.368 345.76,41.368 C342.448,41.368 337.84,47.416 336.4,49.432 C334.24,52.744 332.368,56.488 331.216,59.944 C331.792,60.376 332.512,60.52 333.232,60.52 Z M439.792,74.2 C444.112,74.056 451.888,58.936 453.328,55.336 C454.048,53.464 455.344,49.576 455.344,46.408 C455.344,44.392 454.768,42.808 453.184,42.376 L452.32,42.232 C445.84,42.232 437.632,61.816 437.632,70.312 C437.632,72.76 438.352,74.2 439.792,74.2 Z" id="StageCast" fill="#434D70"></path>
            <g id="theater" transform="translate(0.000000, 2.000000)" fill-rule="nonzero">
                <g id="Capa_1">
                    <circle id="Oval" fill="#434D70" cx="56" cy="56" r="56"></circle>
                    <path d="M43.5170312,14.7422187 C36.197,44.811375 45.2473437,72.835 63.7315,77.3349062 C82.2156562,81.8348125 103.134062,61.1065 110.454094,31.0375625 C117.774125,0.968625 97.713,18.1748437 79.2290625,13.6751562 C60.745125,9.17546875 50.8370625,-15.3269375 43.5170312,14.7422187 Z" id="Shape" fill="#F9CB3F"></path>
                    <path d="M63.7301875,77.33425 C45.2455938,72.835 36.1963438,44.811375 43.5168125,14.7424375 C47.8716875,-3.14825 53.143125,-1.7206875 60.5909063,3.32171875 C58.76675,5.07609375 56.9550625,9.31 54.9548125,17.5275625 C47.6343438,47.5960625 51.562875,74.3728125 63.7301875,77.33425 Z" id="Shape" fill="#E5B832"></path>
                    <g id="Group" transform="translate(50.531250, 23.625000)" fill="#434D70">
                        <path d="M8.8795,6.8586875 C12.7369375,7.7975625 16.6088125,6.99978125 19.6774375,4.96890625 C17.7434687,9.445625 12.8130625,12.0126563 7.91503125,10.82025 C3.017,9.62784375 -0.18178125,5.082 0.15815625,0.217 C1.95015625,3.4313125 5.0220625,5.91959375 8.8795,6.8586875 Z" id="Shape"></path>
                        <path d="M38.57175,14.0870625 C42.4291875,15.0259375 46.3010625,14.2281562 49.3696875,12.1972812 C47.4357187,16.674 42.5053125,19.2410312 37.6072812,18.048625 C32.70925,16.8562187 29.5104687,12.310375 29.8504062,7.445375 C31.6424062,10.6594687 34.7145312,13.1479687 38.57175,14.0870625 Z" id="Shape"></path>
                        <path d="M18.7103438,33.22725 C12.2139063,31.6456875 5.6923125,32.9894687 0.52434375,36.4102812 C3.78153125,28.8704062 12.0857188,24.54725 20.3345625,26.555375 C28.583625,28.5635 33.9716563,36.2199687 33.3985313,44.41325 C30.3810938,39.0000625 25.207,34.8090312 18.7103438,33.22725 Z" id="Shape"></path>
                    </g>
                    <path d="M53.2846563,111.933719 C46.5486875,111.613688 40.1235625,110.102781 34.2173125,107.604656 C22.224125,102.537313 12.3659375,93.4104063 6.36125,81.9452813 C6.36125,81.9452813 6.3590625,81.9452813 6.3590625,81.9430938 C4.416125,77.4630938 2.78425,72.6379063 1.54525,67.543 C0.784,64.4137813 0.32003125,61.7990625 0.11659375,59.6161563 C0.11440625,59.591 0.112,59.5636563 0.1098125,59.5385 C0.0205625,58.5350938 -0.0135625,57.623125 0.007,56.798 C0.0048125,56.7888125 0.0048125,56.779625 0.007,56.7706563 C0.361375,42.256375 17.1292188,53.9890313 32.7705,50.1810313 C51.2550938,45.6804688 61.1635938,21.1798125 68.4825313,51.2485313 C75.1062813,78.4525 68.3267813,103.986313 53.2846563,111.933719 Z" id="Shape" fill="#F43380"></path>
                    <path d="M34.2170938,107.604656 C22.2239063,102.537313 12.3633125,93.408 6.35884375,81.942875 C4.41590625,77.462875 2.78403125,72.6376875 1.54503125,67.5427813 C0.78378125,64.4135625 0.3198125,61.7988438 0.116375,59.6159375 C0.116375,59.5999688 0.1141875,59.584 0.11178125,59.5680313 C0.02034375,58.55325 -0.014,57.6320938 0.0065625,56.7977813 C0.18484375,48.9967188 5.0876875,48.74975 12.0065313,49.616 C11.32075,52.0594375 11.71625,56.6149063 13.6567813,64.59425 C18.2605938,83.5040938 26.1005938,99.243375 34.2170938,107.604656 Z" id="Shape" fill="#E02D77"></path>
                    <g id="Group" transform="translate(14.000000, 62.343750)" fill="#434D70">
                        <path d="M8.8221875,11.5696875 C12.679625,10.6308125 16.5515,11.4285937 19.620125,13.4594687 C17.6861563,8.98275 12.75575,6.41571875 7.85771875,7.608125 C2.9596875,8.80053125 -0.23909375,13.346375 0.10084375,18.211375 C1.89284375,14.9970625 4.96475,12.5085625 8.8221875,11.5696875 Z" id="Shape"></path>
                        <path d="M38.5144375,4.3413125 C42.371875,3.4024375 46.24375,4.20021875 49.312375,6.23109375 C47.3784063,1.754375 42.448,-0.81265625 37.5499688,0.37975 C32.6519375,1.57215625 29.4531563,6.118 29.7930938,10.983 C31.5850938,7.7686875 34.6572188,5.2801875 38.5144375,4.3413125 Z" id="Shape"></path>
                        <path d="M28.8822188,31.5266875 C22.3857813,33.10825 15.8641875,31.7644687 10.6962188,28.3436562 C13.9534063,35.8835312 22.2575938,40.2066875 30.5064375,38.1985625 C38.7555,36.1904375 44.1435313,28.5339687 43.5704063,20.3406875 C40.5531875,25.7540937 35.378875,29.945125 28.8822188,31.5266875 Z" id="Shape"></path>
                    </g>
                </g>
            </g>
        </g>
    </g>
</svg>